<svg xmlns="http://www.w3.org/2000/svg" version="1.1" xmlns:xlink="http://www.w3.org/1999/xlink" width="1000" height="1000"><g clip-path="url(#SvgjsClipPath1161)"><rect width="1000" height="1000" fill="#000000"></rect><g transform="matrix(4.242424242424242,0,0,4.242424242424242,150,160.60606060606062)"><svg xmlns="http://www.w3.org/2000/svg" version="1.1" xmlns:xlink="http://www.w3.org/1999/xlink" width="165" height="160"><svg xmlns="http://www.w3.org/2000/svg" xmlns:xlink="http://www.w3.org/1999/xlink" width="165" height="160" viewBox="0 0 165 160" version="1.1">
    <!-- Generator: Sketch 50.1 (55044) - http://www.bohemiancoding.com/sketch -->
    <title>HVG Law CMYK Coated diap</title>
    <desc>Created with Sketch.</desc>
    <defs>
        <polygon id="path-1" points="0.06 0.357 164.14 0.357 164.14 60.264 0.06 60.264"></polygon>
    <clipPath id="SvgjsClipPath1161"><rect width="1000" height="1000" x="0" y="0" rx="200" ry="200"></rect></clipPath></defs>
    <g id="HVG-Law-CMYK-Coated-diap" stroke="none" stroke-width="1" fill="none" fill-rule="evenodd">
        <g id="Group-3">
            <mask id="mask-2" fill="white">
                <use xlink:href="#path-1"></use>
            </mask>
            <g id="Clip-2"></g>
            <polyline id="Fill-1" fill="#FBD020" mask="url(#mask-2)" points="164.14 0.357 0 60.264 164.14 31.269 164.14 0.357"></polyline>
        </g>
        <polyline id="Fill-4" fill="#FFFFFE" points="32.085 85.288 32.085 104.548 15.613 104.548 15.613 85.288 1.385 85.288 1.385 139.758 15.613 139.758 15.613 118.637 32.085 118.637 32.085 139.758 46.312 139.758 46.312 105.078 39.273 85.288 32.085 85.288"></polyline>
        <polyline id="Fill-5" fill="#FFFFFE" points="76.037 139.758 63.352 139.758 43.978 85.288 59.554 85.288 69.882 116.943 79.967 85.288 95.449 85.288 76.037 139.758"></polyline>
        <polyline id="Fill-6" fill="#FFFFFE" points="31.147 159.982 27.688 159.982 22.404 145.127 26.652 145.127 29.469 153.76 32.211 145.127 36.445 145.127 31.147 159.982"></polyline>
        <polyline id="Fill-7" fill="#FFFFFE" points="40.946 159.982 37.486 159.982 32.211 145.127 36.445 145.127 39.268 153.76 42.017 145.127 46.237 145.127 40.946 159.982"></polyline>
        <path d="M116.118,140.564 C112.536,140.564 109.225,139.888 106.277,138.554 C103.323,137.216 100.748,135.293 98.628,132.826 C96.526,130.377 94.889,127.389 93.758,123.942 C92.641,120.538 92.074,116.697 92.074,112.523 C92.074,108.498 92.667,104.739 93.839,101.356 C95.02,97.94 96.696,94.947 98.822,92.47 C100.976,89.96 103.586,87.984 106.582,86.604 C109.576,85.22 112.904,84.519 116.468,84.519 C121.929,84.519 126.427,85.794 129.839,88.31 C133.206,90.788 135.769,94.177 137.45,98.382 L138.213,100.286 L124.98,105.784 L124.116,104.046 C123.691,103.204 123.229,102.414 122.741,101.707 C122.31,101.086 121.8,100.542 121.226,100.095 C120.672,99.66 119.999,99.314 119.227,99.062 C118.431,98.8 117.456,98.671 116.329,98.671 C114.786,98.671 113.426,98.986 112.275,99.601 C111.083,100.243 110.095,101.113 109.257,102.27 C108.395,103.459 107.726,104.925 107.265,106.628 C106.786,108.394 106.547,110.38 106.547,112.523 C106.547,114.636 106.793,116.614 107.279,118.397 C107.752,120.116 108.435,121.615 109.306,122.844 C110.145,124.033 111.136,124.933 112.345,125.593 C113.52,126.236 114.845,126.548 116.397,126.548 C118.806,126.548 120.67,126.107 121.937,125.233 C122.658,124.735 123.208,124.027 123.602,123.094 L116.212,123.094 L116.212,109.535 L138.404,109.535 L138.404,118.206 C138.404,121.696 137.839,124.86 136.727,127.614 C135.606,130.4 134.026,132.789 132.032,134.704 C130.038,136.617 127.64,138.089 124.897,139.087 C122.202,140.068 119.248,140.564 116.118,140.564" id="Fill-8" fill="#FFFFFE"></path>
        <polyline id="Fill-9" fill="#FFFFFE" points="5.223 156.2 5.223 145.116 1.385 145.116 1.385 160 9.913 160 11.368 156.2 5.223 156.2"></polyline>
        <path d="M17.473,153.978 L19.675,153.978 L18.578,150.885 L17.473,153.978 Z M26.002,160 L21.81,160 L20.722,156.926 L16.435,156.926 L15.346,160 L11.229,160 L16.928,145.116 L20.345,145.116 L26.002,160 Z" id="Fill-10" fill="#FFFFFE"></path>
    </g>
</svg></svg></g></g></svg>